<svg xmlns="http://www.w3.org/2000/svg" width="162.736" height="136.881"
     viewBox="0 0 162.736 136.881">
    <g transform="translate(-3258.286 -1069.08)">
        <path d="M3412.3,1129.317c-1.1,6.5-2.194,12.61-3.16,18.744-1.965,12.468-3.938,24.937-5.747,37.429-.705,4.863-1.115,9.782-1.4,14.69-.263,4.481-1.245,5.793-5.994,5.781-10.228-.027-20.455-.3-30.682-.426-9.16-.116-18.327,0-27.479-.3-9.861-.33-19.7-1.343-29.563-1.478-8.926-.122-17.862.666-26.8.75-2,.018-4.02-1.228-5.873-1.84q-3.891-36.774-7.661-72.406c-.737-.574-.989-.922-1.3-.991-6.784-1.5-6.763-1.494-7.254-8.489-.3-4.352-.691-8.7-1.1-13.8,1.8-.015,3.563-.018,5.324-.047q20.305-.336,40.61-.694c1.455-.027,2.916-.38,4.359-.3,4.2.226,6.382-2.069,8.526-5.439,5.79-9.1,12.021-17.924,18.1-26.842a21.377,21.377,0,0,1,2.382-3.01c2.107-2.132,3.574-2.163,5.355.365,3.264,4.634,6.233,9.477,9.37,14.2,4.247,6.4,8.553,12.757,12.8,19.154a5.82,5.82,0,0,0,5.546,2.739c14.441-.431,28.888-.665,43.327-1.132,4.992-.161,7.045,1.53,7.038,6.668,0,3.837-.085,7.673-.163,11.509-.071,3.5-.47,3.935-4.067,4.535C3415.544,1128.9,3414.285,1129.041,3412.3,1129.317ZM3283.049,1198.7c4.885.041,9.775-.048,14.653.148,15.554.624,31.1,1.615,46.657,1.967,14.655.332,29.323.035,43.986.008,2.5,0,5.009-.039,8.148-.066,3.254-24.267,8.354-47.551,10.394-71.93-15.089.127-29.317.43-43.542.313-14.282-.117-28.559-.741-42.841-.981-14.239-.239-28.48-.278-42.721-.4,6.931,1.663,13.983-.164,20.928,1.534a7.643,7.643,0,0,1-2.975.846c-6.556.66-13.119,1.249-19.664,2-.769.088-1.438,1.044-2.153,1.6l.314.951,13.765-.115c-5.005,3.051-10.377.817-13.807,5.4l14.6-.122q.039.652.076,1.3c-1.906.3-3.821.553-5.716.913-2.141.406-4.268.893-6.394,1.374-2.335.528-2.76,2.03-2.138,4.087,3.545,2.2,7.875-1.079,11.908,1.834l-11.755,2.156q.558,3.342.944,5.65c3.837,1.922,7.872-.535,11.911,2.016l-12.056,2.068c.6,3.09,1.045,5.381,1.507,7.762l8.181.747c.012.208.025.416.037.624l-8.519,2.13c.5,2.52.94,4.789,1.411,7.186l11.61.954c0,.29-.005.579-.007.869l-11.537,1.585c.2,2.115.374,3.988.508,5.417,3.942,2.1,8.1-.621,12.041,2.579l-11.691,1.389c.708,1.925,1.226,3.336,1.744,4.747Zm-13.2-76.226q-.042.6-.085,1.192,2.971-.024,5.942-.049c8.241-.062,16.487-.345,24.72-.132,13.165.341,26.318,1.373,39.48,1.459,19.424.127,38.852-.243,58.276-.569,5.984-.1,11.958-.752,18.167-1.167.271-4.146.5-7.714.761-11.663l-42.52.356c.21.9.333,1.412.45,1.927,1.078,4.761-1.275,8.316-6.031,9.111-4.36.728-7.523-1.991-7.95-6.858-.121-1.383-.184-2.771-.279-4.228l-40.487-1.387c-.461,3.359-.366,6.375-1.361,8.973-1.24,3.235-4.757,3.265-7.606,3.241-4.976-.041-7.271-3.938-7.085-11.263-.161-.088-.322-.256-.482-.254-12.818.149-25.637.29-38.453.542-.53.011-1.039,1.064-2.157,2.286l22.181-.186a20.075,20.075,0,0,1-6.336,1.646c-4.176.524-8.37.92-12.535,1.522-.825.119-1.551.922-2.322,1.409l.242,1.207,18.138.247q.015.588.029,1.175Zm49.311-17.743q.388.664.779,1.329c13.273-.417,26.542,1.107,40.691.166-7.806-10.235-12.563-21.391-21.2-30.949Zm-9.752,9.705c1.107,3.372,2.838,4.822,4.559,3.675,2.316-1.543,1.363-3.57.458-5.516Zm56.154.81c1.113,2.486,1.883,4.267,4.159,3.255a2.772,2.772,0,0,0,.92-2.57C3369.521,1113.545,3367.739,1115.075,3365.564,1115.245Z"/>
        <path d="M3280.855,1197.239c.494-.73.935-2.039,1.492-2.09a23.739,23.739,0,0,1,8.175.58q-3.724,1.49-7.461,2.974C3282.318,1198.212,3281.586,1197.725,3280.855,1197.239Z"/>
        <path d="M3314.564,1189.013c-.042-5.076-.1-9.609-.114-14.142-.021-10.609-.042-21.218,0-31.827.008-2.188.25-4.379.445-6.563.216-2.437,1.381-3.663,4.507-2.936.032,3.776.1,7.534.088,11.291q-.063,19.725-.168,39.449C3319.306,1187.718,3319.319,1187.718,3314.564,1189.013Z"/>
        <path d="M3365.08,1135.215c.026,3.134.208,5.985.047,8.817-.747,13.122-1.584,26.239-2.406,39.357a16.424,16.424,0,0,1-.473,3.763c-.509,1.66-1.47,2.982-3.987,2.239a15.394,15.394,0,0,1-.513-3.415c.824-12.925,1.745-25.844,2.591-38.767.178-2.73.108-5.476.248-8.21C3360.692,1136.932,3360.965,1134.887,3365.08,1135.215Z"/>
        <path d="M3341.461,1134.188c.033,3.89.138,7.3.076,10.7-.217,11.86-.5,23.718-.734,35.578-.032,1.642.173,3.292.117,4.933-.1,3.1-.151,3.1-4.421,3.683-.06-7.185-.267-14.371-.144-21.551.164-9.5.645-18.993.858-28.491C3337.268,1136.563,3337.8,1134.78,3341.461,1134.188Z"/>
        <path d="M3290.057,1135.279l4.873-.581c.932,5.908,2.125,11.759,2.721,17.669.824,8.171,1.151,16.391,1.8,24.581a31.829,31.829,0,0,0,1.164,6.449c.844,2.87-.454,4.05-3.154,4.688-2.235-3.613-2.068-7.691-2.5-11.612-1.286-11.606-2.5-23.221-3.788-34.827C3290.933,1139.532,3290.442,1137.448,3290.057,1135.279Z"/>
        <path d="M3390.84,1134.4a22.9,22.9,0,0,1,0,3.534c-2.33,15.512-4.727,31.015-7.064,46.527-.745,4.945-.743,5.023-4.929,5.837a10.565,10.565,0,0,1-.453-3.107q3.672-22.674,7.5-45.322a22.735,22.735,0,0,1,1.288-5.3c.472-1.082,1.719-1.825,2.619-2.721Z"/>
    </g>
</svg>
